<?xml version="1.0" encoding="UTF-8" standalone="no"?>
<!DOCTYPE svg PUBLIC "-//W3C//DTD SVG 1.0//EN" "http://www.w3.org/TR/2001/REC-SVG-20010904/DTD/svg10.dtd">
<!-- Created with Inkscape (http://www.inkscape.org/) -->
<svg
   xmlns:svg="http://www.w3.org/2000/svg"
   xmlns="http://www.w3.org/2000/svg"
   version="1.0"
   width="800"
   height="100"
   id="svg2">
  <defs
     id="defs4" />
  <g
     id="layer1">
    <path
       d="M 131.83734,66.260134 C 122.8724,68.139902 114.24509,69.07978 105.95539,69.079769 C 97.6656,69.07978 89.278776,68.139902 80.79489,66.260134 L 82.315021,59.175747 C 91.278406,61.296743 99.736566,62.35723 107.68953,62.357212 C 113.18461,62.35723 119.28131,61.778448 125.97965,60.620865 L 127.35416,54.041717 L 83.398308,54.041717 L 87.446845,34.955129 C 96.460233,33.076891 105.11181,32.137749 113.4016,32.137701 C 121.6913,32.137749 130.05312,33.076891 138.48709,34.955129 L 136.96916,42.041723 C 128.05276,39.969324 119.61813,38.933106 111.66526,38.933065 C 106.17156,38.933106 100.07486,39.486883 93.375138,40.594399 L 92.000621,46.95733 L 135.95647,46.95733 L 131.83734,66.260134 z M 156.8125,46.811715 L 171.70715,46.811715 C 180.28514,46.811748 187.63501,46.595533 193.75678,46.163067 L 194.91287,40.667206 C 188.50282,39.511152 182.35758,38.933106 176.47714,38.933065 C 170.98344,38.933106 164.88674,39.486883 158.18702,40.594399 L 156.8125,46.811715 z M 139.38946,46.811715 L 149.72812,46.811715 L 152.25873,34.955129 C 161.27211,33.076891 169.92369,32.137749 178.21349,32.137701 C 186.50319,32.137749 194.86501,33.076891 203.29897,34.955129 L 201.78104,42.041723 L 201.70823,42.041723 L 199.53945,52.234768 C 189.36989,53.343822 179.61002,53.898335 170.25982,53.898308 L 155.36738,53.898308 L 152.11532,69.006961 L 145.02872,69.006961 L 148.283,53.898308 L 137.94434,53.898308 L 139.38946,46.811715 z M 219.68947,32.137701 L 226.77386,32.137701 L 218.893,69.006961 L 211.80862,69.006961 L 219.68947,32.137701 z M 282.57306,60.548057 L 286.76721,40.667206 C 280.35716,39.511152 274.18765,38.933106 268.25867,38.933065 C 267.05399,38.933106 262.88485,38.836765 255.75123,38.644041 L 250.40319,38.498426 L 245.34197,62.13879 L 238.25758,62.13879 L 264.28294,62.211597 C 269.77802,62.211616 275.87472,61.657103 282.57306,60.548057 L 282.57306,60.548057 z M 288.43075,66.187326 C 279.46582,68.067095 270.83851,69.006972 262.5488,69.006961 L 236.81026,69.006961 L 244.69111,32.137701 L 269.99502,32.137701 C 278.28472,32.137749 286.64654,33.076891 295.0805,34.955129 L 288.43075,66.187326 z M 301.32651,46.811715 L 314.84664,46.811715 L 316.79699,37.631355 L 316.8698,37.631355 L 317.80968,33.366603 C 325.23159,32.547383 334.43768,32.137749 345.42798,32.137701 C 355.93425,32.137749 364.60936,32.570916 371.45334,33.437204 L 369.93541,40.594399 C 360.63363,39.341269 351.18706,38.714684 341.59566,38.714642 C 335.04,38.714684 328.9911,39.027976 323.44895,39.65452 L 321.93102,46.811715 L 356.99333,46.811715 L 355.54822,53.898308 L 320.4859,53.898308 L 318.89517,61.126104 C 324.34172,61.752708 330.31781,62.066001 336.82346,62.065983 C 346.41487,62.066001 355.95778,61.439416 365.45224,60.186226 L 363.93431,67.345627 C 356.70498,68.453195 347.90926,69.006972 337.54712,69.006961 C 326.70245,69.006972 317.71331,68.453195 310.57968,67.345627 L 311.66517,62.357212 L 311.59236,62.357212 L 313.39931,53.898308 L 299.88139,53.898308 L 301.32651,46.811715 z M 429.29997,52.018552 C 431.3238,52.933453 432.84173,53.824792 433.85374,54.692572 L 430.81789,69.006961 L 423.7313,69.006961 L 426.1185,57.946845 C 420.76894,55.440528 414.35821,54.13882 406.8863,54.041717 L 390.18691,53.825501 L 386.93484,69.006961 L 379.84825,69.006961 L 387.07825,34.955129 C 396.09164,33.076891 404.74322,32.137749 413.03301,32.137701 C 421.32271,32.137749 429.68453,33.076891 438.11849,34.955129 L 436.60057,42.041723 L 436.52776,42.041723 L 434.5774,51.440505 L 429.29997,52.018552 z M 391.70484,46.741114 L 411.80411,46.811715 C 415.94894,46.811748 421.58747,46.354312 428.71971,45.439405 L 429.7324,40.667206 C 423.32234,39.511152 417.1771,38.933106 411.29666,38.933065 C 405.80297,38.933106 399.70627,39.486883 393.00655,40.594399 L 391.70484,46.741114 z M 459.1127,46.595499 L 497.06746,46.595499 L 494.53684,52.089153 L 456.58209,52.089153 L 459.1127,46.595499 z M 545.64991,28.883428 L 552.7365,28.883428 L 552.01284,32.208302 C 559.0979,32.449571 566.23082,33.365179 573.41162,34.955129 L 566.18161,69.152576 L 559.09723,69.152576 L 565.09833,40.667206 C 560.13412,39.752373 555.29059,39.19786 550.56772,39.003666 L 544.92845,65.825495 L 537.84186,65.825495 L 543.48113,39.003666 C 538.85524,39.149322 533.79476,39.679566 528.29967,40.594399 L 522.22797,69.152576 L 515.14137,69.152576 L 522.37137,34.955129 C 530.13159,33.316641 537.65061,32.401032 544.92845,32.208302 L 545.64991,28.883428 z M 597.89257,40.594399 L 596.52026,46.811715 L 633.38952,46.811715 L 634.69123,40.667206 C 628.28117,39.511152 622.1124,38.933106 616.1849,38.933065 C 610.73827,38.933106 604.64083,39.486883 597.89257,40.594399 L 597.89257,40.594399 z M 635.77673,69.006961 L 628.69013,69.006961 L 631.8716,54.041717 L 595.00234,54.041717 L 591.82087,69.006961 L 584.73648,69.006961 L 591.96428,34.955129 C 600.97766,33.076891 609.62924,32.137749 617.91904,32.137701 C 626.20874,32.137749 634.57129,33.076891 643.00673,34.955129 L 635.77673,69.006961 z M 669.50422,34.955129 C 672.01054,34.425666 674.49261,33.96823 676.95044,33.582819 C 677.04748,33.582866 677.09602,33.630668 677.09605,33.726228 C 677.09602,33.918956 677.03572,34.220482 676.91514,34.630805 C 676.7945,35.04122 676.73419,35.342745 676.73422,35.535383 C 676.73419,35.631033 676.75846,35.678836 676.80703,35.678791 C 677.14383,34.956646 677.55346,34.23372 678.03593,33.510011 C 684.5415,32.595185 690.34918,32.137749 695.45898,32.137701 C 703.74868,32.137749 712.1105,33.076891 720.54446,34.955129 L 713.31446,69.152576 L 706.23007,69.152576 L 712.23117,40.667206 C 705.82111,39.511152 699.65161,38.933106 693.72263,38.933065 C 688.22894,38.933106 682.13224,39.486883 675.43251,40.594399 L 669.36081,69.152576 L 662.27422,69.152576 L 669.50422,34.955129 z"
       id="text2396"
       style="font-size:72.29560852px;font-style:normal;font-variant:normal;font-weight:normal;font-stretch:normal;text-align:start;line-height:100%;writing-mode:lr-tb;text-anchor:start;fill:#000000;fill-opacity:1;stroke:none;stroke-width:1px;stroke-linecap:butt;stroke-linejoin:miter;stroke-opacity:1;font-family:Homoarakhn;-inkscape-font-specification:Homoarakhn" />
  </g>
</svg>
