<?xml version="1.0" encoding="utf-8"?>
<!-- Generator: Adobe Illustrator 15.1.0, SVG Export Plug-In . SVG Version: 6.00 Build 0)  -->
<!DOCTYPE svg PUBLIC "-//W3C//DTD SVG 1.1//EN" "http://www.w3.org/Graphics/SVG/1.1/DTD/svg11.dtd">
<svg version="1.1" id="Capa_1" xmlns="http://www.w3.org/2000/svg" xmlns:xlink="http://www.w3.org/1999/xlink" x="0px" y="0px"
	 width="421.297px" height="52.672px" viewBox="0 0 421.297 52.672" enable-background="new 0 0 421.297 52.672"
	 xml:space="preserve">
<g>
	<g>
		<path d="M45.277,48.065c-2.079,0.665-4.625,0.996-7.643,0.996H15.412c-1.234,0-2.416-0.082-3.542-0.249
			c-1.128-0.165-2.094-0.425-2.898-0.778c-0.807-0.352-1.39-0.777-1.752-1.275S6.8,45.68,7.048,45.016h31.757l1.374-3.672H17.888
			c-1.235,0-2.394-0.082-3.475-0.249c-1.081-0.165-1.99-0.425-2.726-0.778c-0.737-0.352-1.275-0.777-1.614-1.276
			c-0.34-0.498-0.378-1.099-0.114-1.805L11.17,34c0.295-0.788,0.81-1.462,1.546-2.022c0.735-0.561,1.607-1.027,2.616-1.401
			c1.008-0.374,2.114-0.642,3.32-0.809c1.204-0.166,2.447-0.249,3.729-0.249h22.702c2.972,0,5.241,0.322,6.808,0.964
			c1.564,0.644,2.076,1.691,1.532,3.144H21.942l-1.351,3.61h21.536c1.234,0,2.43,0.072,3.588,0.218
			c1.157,0.146,2.134,0.373,2.932,0.684c0.799,0.312,1.39,0.716,1.775,1.214c0.385,0.498,0.453,1.08,0.205,1.743l-1.443,3.859
			C48.657,46.365,47.354,47.402,45.277,48.065z"/>
		<path d="M93.82,40.317c-2.382,0.685-5.357,1.027-8.923,1.027H69.328c0.155-0.414,0.439-0.872,0.855-1.369
			c0.415-0.498,0.936-0.943,1.564-1.338c0.628-0.395,1.38-0.726,2.259-0.996c0.878-0.269,1.866-0.404,2.964-0.404h10.7l1.351-3.61
			H68.032L63.98,44.455c-0.684,1.827-2.041,3.071-4.072,3.734c-1.04,0.333-2.161,0.551-3.366,0.654
			c-1.205,0.104-2.424,0.155-3.659,0.155h-1.029l7.29-19.48h32.374c2.834,0,5,0.353,6.497,1.058c1.496,0.706,1.996,1.723,1.499,3.05
			l-1.351,3.61C97.65,38.605,96.204,39.633,93.82,40.317z"/>
		<path d="M107.204,48.999c-1.234,0-2.377-0.093-3.427-0.279c-1.052-0.187-1.933-0.457-2.646-0.81
			c-0.715-0.353-1.229-0.777-1.546-1.276c-0.318-0.497-0.359-1.058-0.126-1.68l5.775-15.436h0.961c2.88,0,5.046,0.353,6.497,1.058
			c1.451,0.706,1.928,1.723,1.431,3.05l-5.752,15.373H107.204z"/>
		<path d="M154.58,46.759c-0.667,0.498-1.497,0.913-2.489,1.244c-0.993,0.333-2.093,0.582-3.297,0.748
			c-1.206,0.166-2.471,0.248-3.797,0.248h-32.442l4.355-11.638h10.563l-2.864,7.655h20.988l4.262-11.389h-21.193
			c-2.013,0-3.65-0.083-4.914-0.249c-1.265-0.166-2.239-0.405-2.921-0.716c-0.685-0.311-1.105-0.684-1.262-1.12
			c-0.157-0.436-0.135-0.923,0.067-1.462l0.209-0.56h32.442c2.881,0,5.047,0.353,6.498,1.058c1.45,0.706,1.927,1.723,1.43,3.05
			l-4.238,11.328C155.71,45.66,155.247,46.261,154.58,46.759z"/>
		<path d="M200.635,40.348c-2.353,0.664-5.289,0.996-8.809,0.996h-19.891l-1.374,3.672h31.481c-0.265,0.707-0.729,1.308-1.395,1.805
			c-0.667,0.499-1.498,0.914-2.489,1.245c-0.994,0.333-2.089,0.57-3.286,0.716c-1.198,0.146-2.459,0.218-3.786,0.218h-23.114
			c-1.28,0-2.446-0.093-3.496-0.279c-1.052-0.187-1.933-0.457-2.646-0.81c-0.715-0.353-1.229-0.777-1.546-1.276
			c-0.318-0.497-0.359-1.058-0.126-1.68l4.262-11.39c0.217-0.581,0.67-1.12,1.36-1.618c0.689-0.499,1.522-0.923,2.501-1.276
			c0.978-0.353,2.064-0.633,3.264-0.841c1.198-0.208,2.414-0.311,3.648-0.311h23.183c2.835,0,4.988,0.353,6.463,1.058
			c1.473,0.706,1.962,1.723,1.465,3.05h-31.481l-1.351,3.61h31.481C204.425,38.647,202.986,39.685,200.635,40.348z"/>
		<path d="M234.96,49.062l-10.459-11.825h16.187l1.351-3.61h-21.125l-4.029,10.767c-0.683,1.826-2.041,3.071-4.072,3.734
			c-1.04,0.333-2.161,0.551-3.366,0.653c-1.205,0.104-2.424,0.156-3.659,0.156h-1.029l7.266-19.419h32.442
			c2.881,0,5.047,0.353,6.498,1.058c1.45,0.706,1.927,1.723,1.43,3.05l-1.374,3.672c-0.466,1.245-1.608,2.22-3.427,2.925
			c-1.818,0.706-4.184,1.101-7.095,1.183l7.081,7.655H234.96z"/>
		<path d="M275.94,37.609c-0.093,0.249-0.371,0.592-0.831,1.027c-0.46,0.435-1.095,0.851-1.906,1.245
			c-0.811,0.395-1.788,0.747-2.933,1.058c-1.146,0.312-2.45,0.467-3.913,0.467h-10.151l0.209-0.56
			c0.093-0.25,0.321-0.581,0.681-0.996c0.361-0.414,0.909-0.809,1.643-1.183c0.733-0.373,1.681-0.705,2.842-0.996
			c1.159-0.29,2.608-0.436,4.347-0.436h10.151L275.94,37.609z"/>
		<path d="M320.648,48.999c-1.326,0-2.531-0.082-3.61-0.248c-1.082-0.166-1.983-0.415-2.705-0.748
			c-0.723-0.331-1.241-0.746-1.558-1.244s-0.343-1.099-0.078-1.805l2.958-7.904l-15.676,8.714l-9.222-8.714l-2.958,7.904
			c-0.265,0.706-0.729,1.307-1.396,1.805c-0.666,0.498-1.485,0.913-2.454,1.244c-0.971,0.333-2.07,0.582-3.298,0.748
			c-1.229,0.166-2.505,0.248-3.831,0.248h-0.961l7.29-19.48h1.989c0.549,0,1.241,0.01,2.08,0.031
			c0.838,0.021,1.699,0.104,2.582,0.249c0.882,0.146,1.754,0.353,2.614,0.622c0.859,0.271,1.583,0.654,2.175,1.151l8.067,7.034
			l13.264-7.034c0.917-0.498,1.907-0.88,2.968-1.151c1.062-0.269,2.099-0.477,3.114-0.622c1.015-0.145,1.96-0.228,2.837-0.249
			c0.876-0.021,1.589-0.031,2.138-0.031h1.92l-7.29,19.48H320.648z"/>
		<path d="M357.274,48.999l2.865-7.655h-21.057l-1.141,3.05c-0.358,0.955-0.862,1.69-1.512,2.209
			c-0.652,0.52-1.527,0.966-2.628,1.339c-0.994,0.333-2.142,0.592-3.445,0.778c-1.306,0.187-2.621,0.279-3.947,0.279h-0.617
			l5.683-15.186c0.279-0.748,0.771-1.39,1.477-1.929c0.705-0.54,1.557-0.986,2.559-1.339c1-0.351,2.103-0.611,3.309-0.777
			c1.204-0.166,2.425-0.249,3.659-0.249h32.648l-7.29,19.48H357.274z M363.027,33.626H341.97l-1.351,3.61h21.057L363.027,33.626z"/>
		<path d="M407.641,48.938c-0.549,0-1.204-0.021-1.966-0.063c-0.763-0.041-1.573-0.135-2.433-0.28
			c-0.861-0.146-1.697-0.352-2.511-0.623c-0.814-0.269-1.547-0.632-2.198-1.089l-8.666-6.535l-3.275-2.427l-4.123,11.017h-10.426
			l7.266-19.419h2.127c0.548,0,1.227,0.021,2.034,0.063c0.807,0.041,1.63,0.134,2.467,0.28s1.674,0.353,2.512,0.622
			c0.835,0.271,1.557,0.634,2.163,1.089l8.666,6.535c0.03,0.042,0.208,0.178,0.535,0.405c0.325,0.229,0.746,0.54,1.262,0.934
			c0.515,0.395,0.994,0.736,1.434,1.026l2.632-7.033c0.512-1.369,1.765-2.365,3.758-2.988c1.993-0.622,4.431-0.933,7.312-0.933
			h0.823l-7.266,19.419H407.641z"/>
	</g>
	<g>
		<path d="M112.961,7.568c-0.431,0.253-0.912,0.434-1.443,0.543c-0.531,0.107-1.065,0.175-1.604,0.199
			c-0.539,0.024-0.997,0.036-1.375,0.036h-4.051l-2.339,6.579c-0.3,0.844-0.805,1.446-1.514,1.808
			c-0.71,0.361-1.858,0.542-3.448,0.542h-1.666l3.175-8.929h-8.858l0.116-0.326c0.282-0.795,0.822-1.337,1.619-1.626
			c0.796-0.289,1.839-0.434,3.126-0.434h19.346l-0.18,0.506C113.693,6.948,113.391,7.315,112.961,7.568z"/>
		<path d="M135.508,15.974c-0.381,0.289-0.839,0.53-1.374,0.722c-0.536,0.193-1.142,0.339-1.821,0.435
			c-0.678,0.097-1.369,0.145-2.076,0.145h-0.529l1.581-4.446h-11.623l-1.581,4.446h-0.644c-0.682,0-1.312-0.055-1.892-0.163
			c-0.581-0.108-1.067-0.265-1.461-0.47c-0.395-0.204-0.679-0.452-0.854-0.741s-0.197-0.615-0.069-0.976l2.365-6.652
			c0.12-0.336,0.368-0.644,0.744-0.922c0.376-0.276,0.833-0.517,1.374-0.722c0.54-0.205,1.14-0.367,1.802-0.489
			c0.661-0.12,1.345-0.18,2.052-0.18h0.605l-1.607,4.519h11.66l1.607-4.519h0.492c1.591,0,2.785,0.205,3.587,0.615
			c0.801,0.409,1.063,1,0.789,1.771l-2.339,6.579C136.151,15.335,135.888,15.684,135.508,15.974z"/>
		<path d="M160.947,12.25c-1.298,0.385-2.918,0.579-4.862,0.579h-10.979l-0.759,2.133h17.377c-0.146,0.41-0.402,0.759-0.771,1.048
			c-0.367,0.289-0.826,0.53-1.373,0.724c-0.549,0.193-1.153,0.331-1.814,0.416c-0.661,0.085-1.357,0.126-2.089,0.126h-12.758
			c-0.707,0-1.35-0.055-1.93-0.163c-0.581-0.108-1.067-0.265-1.461-0.47c-0.395-0.204-0.679-0.452-0.854-0.741
			s-0.197-0.615-0.069-0.976l2.352-6.615c0.12-0.338,0.37-0.651,0.75-0.94s0.84-0.536,1.38-0.741c0.54-0.205,1.14-0.367,1.802-0.489
			c0.661-0.12,1.332-0.18,2.014-0.18h12.796c1.565,0,2.754,0.205,3.567,0.615c0.813,0.409,1.083,1,0.809,1.771H146.7l-0.746,2.097
			h17.377C163.04,11.262,162.245,11.864,160.947,12.25z"/>
		<path d="M188.424,17.275l1.581-4.446h-11.623l-0.63,1.771c-0.197,0.555-0.476,0.981-0.834,1.282
			c-0.36,0.302-0.843,0.561-1.45,0.778c-0.548,0.193-1.183,0.343-1.902,0.452c-0.72,0.108-1.446,0.163-2.178,0.163h-0.341
			l3.136-8.82c0.155-0.435,0.425-0.807,0.814-1.121c0.389-0.313,0.86-0.573,1.413-0.778c0.552-0.204,1.161-0.355,1.826-0.452
			c0.665-0.096,1.339-0.145,2.021-0.145h18.021l-4.023,11.315H188.424z M191.599,8.346h-11.623l-0.746,2.097h11.623L191.599,8.346z"
			/>
		<path d="M221.285,17.275c-0.731,0-1.396-0.048-1.993-0.145c-0.597-0.096-1.094-0.241-1.492-0.435
			c-0.399-0.192-0.686-0.433-0.86-0.722c-0.175-0.29-0.189-0.639-0.043-1.049l1.632-4.59l-8.652,5.061l-5.091-5.061l-1.632,4.59
			c-0.146,0.41-0.402,0.759-0.771,1.049c-0.368,0.289-0.819,0.53-1.354,0.722c-0.536,0.193-1.143,0.339-1.821,0.435
			c-0.678,0.097-1.382,0.145-2.113,0.145h-0.53l4.023-11.315h1.098c0.303,0,0.685,0.006,1.147,0.019
			c0.463,0.012,0.938,0.06,1.425,0.145c0.488,0.084,0.968,0.205,1.443,0.361c0.475,0.157,0.874,0.379,1.201,0.668l4.454,4.085
			l7.321-4.085c0.506-0.289,1.052-0.511,1.638-0.668c0.586-0.156,1.159-0.277,1.718-0.361c0.56-0.085,1.083-0.133,1.566-0.145
			c0.484-0.012,0.878-0.019,1.181-0.019h1.06l-4.023,11.315H221.285z"/>
		<path d="M241.501,17.275l1.581-4.446h-11.623l-0.63,1.771c-0.197,0.555-0.476,0.981-0.834,1.282
			c-0.36,0.302-0.843,0.561-1.45,0.778c-0.548,0.193-1.183,0.343-1.902,0.452c-0.72,0.108-1.446,0.163-2.178,0.163h-0.341
			l3.136-8.82c0.155-0.435,0.425-0.807,0.814-1.121c0.389-0.313,0.86-0.573,1.413-0.778c0.552-0.204,1.161-0.355,1.826-0.452
			c0.665-0.096,1.339-0.145,2.021-0.145h18.021l-4.023,11.315H241.501z M244.676,8.346h-11.623l-0.746,2.097h11.623L244.676,8.346z"
			/>
		<path d="M249.64,17.275l0.462-1.301c0.128-0.362,0.51-0.742,1.143-1.139c0.634-0.397,1.399-0.795,2.298-1.192
			c0.898-0.398,1.864-0.79,2.897-1.175c1.033-0.386,2.013-0.748,2.941-1.085c1.214-0.434,2.268-0.807,3.163-1.121
			c0.892-0.313,1.672-0.59,2.339-0.831c0.666-0.241,1.244-0.446,1.733-0.615c0.488-0.168,0.949-0.326,1.378-0.47h-10.524
			c-0.934,0-1.686-0.048-2.258-0.145c-0.571-0.096-0.996-0.235-1.271-0.416c-0.276-0.181-0.439-0.397-0.488-0.651
			c-0.049-0.253-0.021-0.524,0.081-0.813l0.129-0.362h24.267l-0.386,1.085c-0.146,0.409-0.433,0.79-0.859,1.138
			c-0.427,0.35-0.963,0.687-1.608,1.012c-0.646,0.326-1.381,0.65-2.203,0.976s-1.68,0.645-2.574,0.958l0.013-0.036
			c-2.226,0.795-4.294,1.537-6.205,2.223c-1.909,0.687-3.468,1.236-4.673,1.645h10.373c1.136,0,2.012,0.072,2.629,0.216
			c0.618,0.145,1.059,0.326,1.322,0.543c0.264,0.216,0.394,0.452,0.393,0.705c-0.002,0.253-0.041,0.488-0.118,0.705l-0.051,0.145
			H249.64z"/>
		<path d="M281.403,17.275c-0.682,0-1.312-0.055-1.892-0.163c-0.581-0.108-1.067-0.265-1.461-0.47
			c-0.395-0.204-0.679-0.452-0.854-0.741s-0.197-0.615-0.069-0.976l3.188-8.965h0.53c1.59,0,2.784,0.205,3.586,0.615
			c0.801,0.409,1.063,1,0.789,1.771l-3.175,8.929H281.403z"/>
		<path d="M304.017,17.239c-0.303,0-0.665-0.012-1.086-0.037c-0.42-0.023-0.868-0.078-1.343-0.162s-0.937-0.205-1.386-0.362
			c-0.449-0.156-0.853-0.367-1.214-0.633l-4.783-3.795l-1.808-1.41l-2.275,6.398h-5.754l4.011-11.279h1.174
			c0.303,0,0.676,0.012,1.123,0.036c0.445,0.024,0.898,0.079,1.361,0.163c0.462,0.084,0.924,0.205,1.386,0.362
			c0.46,0.157,0.859,0.367,1.195,0.632l4.783,3.796c0.016,0.024,0.115,0.102,0.296,0.235c0.179,0.132,0.412,0.313,0.697,0.542
			c0.283,0.23,0.547,0.429,0.791,0.597l1.453-4.085c0.283-0.795,0.974-1.374,2.074-1.735s2.446-0.542,4.036-0.542h0.455
			l-4.011,11.279H304.017z"/>
		<path d="M331.453,14.925c-0.146,0.41-0.409,0.759-0.789,1.049c-0.381,0.289-0.839,0.53-1.374,0.722
			c-0.536,0.193-1.142,0.339-1.821,0.435c-0.678,0.097-1.369,0.145-2.076,0.145h-12.796c-0.682,0-1.312-0.055-1.892-0.163
			c-0.581-0.108-1.067-0.265-1.461-0.47c-0.395-0.204-0.679-0.452-0.854-0.741s-0.197-0.615-0.069-0.976l2.365-6.652
			c0.12-0.336,0.368-0.644,0.744-0.922c0.376-0.276,0.833-0.517,1.374-0.722c0.54-0.205,1.14-0.367,1.802-0.489
			c0.661-0.12,1.345-0.18,2.052-0.18h12.758c1.591,0,2.79,0.193,3.6,0.578c0.809,0.386,1.067,0.989,0.776,1.808h-17.377
			l-2.353,6.616h11.66l0.759-2.133h-4.126c-1.389,0-2.515-0.187-3.379-0.56c-0.864-0.374-1.249-0.837-1.151-1.393l0.154-0.433
			h15.067L331.453,14.925z"/>
	</g>
</g>
</svg>
